<?xml version="1.0" encoding="utf-8"?>
<!-- Generator: Adobe Illustrator 16.0.0, SVG Export Plug-In . SVG Version: 6.00 Build 0)  -->
<!DOCTYPE svg PUBLIC "-//W3C//DTD SVG 1.1//EN" "http://www.w3.org/Graphics/SVG/1.1/DTD/svg11.dtd" [
	<!ENTITY ns_flows "http://ns.adobe.com/Flows/1.0/">
	<!ENTITY ns_extend "http://ns.adobe.com/Extensibility/1.0/">
	<!ENTITY ns_ai "http://ns.adobe.com/AdobeIllustrator/10.0/">
	<!ENTITY ns_graphs "http://ns.adobe.com/Graphs/1.0/">
	<!ENTITY st0 "fill:#FFFFFF;">
]>
<svg version="1.1" xmlns:x="&ns_extend;" xmlns:i="&ns_ai;" xmlns:graph="&ns_graphs;"
	 xmlns="http://www.w3.org/2000/svg" xmlns:xlink="http://www.w3.org/1999/xlink" xmlns:a="http://ns.adobe.com/AdobeSVGViewerExtensions/3.0/"
	  width="100%" height="100%" viewBox="0 0 584 209" >

	<path style="&st0;" d="M9.883,7.808h16.172l19.743,133.677L69.584,7.808h14.271l23.547,133.677L127.385,7.808h15.697
		l-27.829,167.453H99.792L76.482,42.536L52.935,175.261H37.712L9.883,7.808z"/>
	<path style="&st0;" d="M157.608,48.718h14.745v17.604c4.521-11.18,13.319-19.982,26.878-19.03V64.18h-0.475
		c-14.984,0-26.403,9.754-26.403,30.685v79.444h-14.745V48.718z"/>
	<path style="&st0;" d="M214.938,6.382h15.458v19.505h-15.458V6.382z M215.174,48.718h14.987v125.591h-14.987V48.718z"/>
	<path style="&st0;" d="M257.516,153.14V61.563h-10.703V48.718h10.703V14.229h14.987v34.489h18.789v12.845h-18.789v88.008
		c0,9.515,4.282,12.132,11.654,12.132c2.139,0,5.234-0.478,7.373-1.191v12.846c-2.856,1.19-7.373,2.143-10.703,2.143
		C267.27,175.5,257.516,170.027,257.516,153.14z"/>
	<path style="&st0;" d="M309.38,6.382h15.462v19.505H309.38V6.382z M309.619,48.718h14.984v125.591h-14.984V48.718z"/>
	<path style="&st0;" d="M348.39,48.718h14.752v17.604c4.517-10.467,11.887-19.744,24.974-19.744
		c16.648,0,27.354,14.033,27.354,37.819v89.911h-14.752V87.014c0-17.601-6.421-27.352-17.598-27.352
		c-11.184,0-19.979,11.416-19.979,28.781v85.865H348.39V48.718z"/>
	<path style="&st0;" d="M438.778,200.947v-14.506c8.563,3.33,19.27,5.707,26.646,5.707c15.694,0,24.257-7.137,24.257-23.786v-24.738
		c-4.756,12.371-12.603,23.786-25.212,23.786c-16.172,0-30.924-19.266-30.924-59.465v-1.9c0-39.961,14.752-59.466,30.924-59.466
		c12.609,0,20.456,11.419,25.212,23.787V48.718h14.984v119.884c0,25.687-14.507,37.105-38.531,37.105
		C456.621,205.707,447.342,204.042,438.778,200.947z M490.158,107.945v-1.665c0-29.494-10.938-45.905-21.644-45.905
		c-10.944,0-20.218,16.175-20.218,45.905v1.429c0,29.968,9.273,45.905,20.218,45.905
		C479.221,153.614,490.158,137.442,490.158,107.945z"/>
	<path style="&st0;" d="M521.334,170.027v-14.984c8.802,4.518,17.358,7.373,24.974,7.373c9.279,0,16.649-6.186,16.649-16.175v-0.475
		c0-7.85-4.279-15.461-18.314-28.781c-16.888-16.175-23.548-26.403-23.548-39.961V76.55c0-18.553,13.797-29.498,30.446-29.498
		c8.086,0,14.035,1.191,20.695,4.046v14.984c-6.898-3.568-13.559-5.233-20.695-5.233c-9.041,0-15.7,5.708-15.7,14.984v0.478
		c0,7.851,4.046,13.797,18.553,28.068c16.888,16.888,23.309,27.116,23.309,40.674v0.475c0,18.791-14.507,30.446-31.156,30.446
		C537.267,175.975,529.42,173.835,521.334,170.027z"/>

</svg>
